<?xml version="1.0" encoding="UTF-8"?>
<svg version="1.1" xmlns="http://www.w3.org/2000/svg" width="500" height="500">
<path d="M0 0 C3.15455719 4.0181622 4.76416693 7.81762863 6.1875 12.6875 C8.43271594 19.99096778 11.56256567 26.73387605 14.96557617 33.56518555 C16.83925813 37.36174112 18.48660618 40.73883126 19 45 C19.66 45 20.32 45 21 45 C20.5238907 41.10378668 20.04357674 37.20810284 19.5625 33.3125 C19.42779297 32.20970703 19.29308594 31.10691406 19.15429688 29.97070312 C19.02216797 28.90400391 18.89003906 27.83730469 18.75390625 26.73828125 C18.63345947 25.75899658 18.5130127 24.77971191 18.38891602 23.77075195 C18.0214811 21.15303769 17.52971082 18.58883722 17 16 C16.5519656 11.64451801 16.28077871 8.20829176 18.5625 4.375 C21 3 21 3 24.5625 3 C28.45402819 4.13208093 29.00361357 4.62320469 31 8 C32.2101563 12.07528669 32.97915575 16.23308059 33.78979492 20.4050293 C34.18083379 22.40343234 34.59588514 24.39571289 35.01367188 26.38867188 C36.66558167 34.69790236 37.36448819 42.5339742 37 51 C38.32 51 39.64 51 41 51 C41.10546143 50.26885986 41.21092285 49.53771973 41.31958008 48.78442383 C41.80584448 45.45867082 42.30898735 42.13568351 42.8125 38.8125 C42.97814453 37.66201172 43.14378906 36.51152344 43.31445312 35.32617188 C43.48525391 34.21435547 43.65605469 33.10253906 43.83203125 31.95703125 C43.98389893 30.93585205 44.1357666 29.91467285 44.29223633 28.86254883 C45.43950214 24.22243444 47.01941074 21.65372617 51 19 C54.09911017 19.15495551 55.50606385 19.46862884 57.63964844 21.76391602 C61.26415719 27.72171854 58.79394824 36.9717112 57.75 43.5625 C57.55192749 44.87081787 57.55192749 44.87081787 57.34985352 46.20556641 C56.50559868 51.54327889 55.34793263 56.66115355 53.9375 61.875 C51.46359558 71.1783555 51.18140274 80.74500335 50.77124023 90.31787109 C50.16851568 102.74713832 47.66387665 113.36912002 39.4375 123 C34.99860452 126.64217065 30.59486547 126.29268914 25 126 C23.33333333 125.66666667 21.66666667 125.33333333 20 125 C15.85807774 124.8663896 12.49460559 124.89587251 8.4375 125.75 C3.83245622 126.08491227 1.69535774 124.50698278 -2 122 C-2.78632813 121.54625 -3.57265625 121.0925 -4.3828125 120.625 C-7.21940029 118.86377534 -9.68924132 116.89145317 -12.25 114.75 C-15.64763775 111.92167152 -19.06962177 109.18848988 -22.625 106.5625 C-28.1742679 102.28535669 -34.74382817 96.76851549 -37 90 C-37.47231031 84.33227628 -37.03424161 81.50950035 -33.94921875 76.80078125 C-32.84662408 74.70902758 -32.59893491 73.03247876 -32.375 70.6875 C-32 67 -32 67 -30 65 C-28.68 65 -27.36 65 -26 65 C-26.0825 63.80375 -26.165 62.6075 -26.25 61.375 C-26.23995585 55.69001158 -23.61724871 52.61724871 -19.6875 48.6875 C-16.25194595 46.53029165 -14.06533624 46.09277738 -10 46 C-7.36094521 47.27316806 -5.27043513 49.02868811 -3.0625 50.9375 C-2.47404297 51.41896484 -1.88558594 51.90042969 -1.27929688 52.39648438 C0.16189737 53.57990404 1.58307706 54.78762533 3 56 C1.36987606 44.73511366 -1.90521482 33.8637693 -5.6953125 23.15234375 C-6.11441895 21.95460327 -6.11441895 21.95460327 -6.54199219 20.73266602 C-7.08324339 19.20076013 -7.63788134 17.67349513 -8.20800781 16.15209961 C-9.89048673 11.39544149 -10.20205835 8.043557 -9 3 C-6.76332819 -0.64930663 -4.04437677 -0.74284471 0 0 Z " fill="#E268B4" transform="translate(232,145)"/>
<path d="M0 0 C3.89152819 1.13208093 4.44111357 1.62320469 6.4375 5 C7.6476563 9.07528669 8.41665575 13.23308059 9.22729492 17.4050293 C9.61833379 19.40343234 10.03338514 21.39571289 10.45117188 23.38867188 C12.10308167 31.69790236 12.80198819 39.5339742 12.4375 48 C13.7575 48 15.0775 48 16.4375 48 C16.59569214 46.90328979 16.59569214 46.90328979 16.75708008 45.78442383 C17.24334448 42.45867082 17.74648735 39.13568351 18.25 35.8125 C18.41564453 34.66201172 18.58128906 33.51152344 18.75195312 32.32617188 C18.92275391 31.21435547 19.09355469 30.10253906 19.26953125 28.95703125 C19.42139893 27.93585205 19.5732666 26.91467285 19.72973633 25.86254883 C20.87700214 21.22243444 22.45691074 18.65372617 26.4375 16 C29.53661017 16.15495551 30.94356385 16.46862884 33.07714844 18.76391602 C36.70043345 24.719707 34.23413794 33.97390422 33.1875 40.5625 C33.05545166 41.41368408 32.92340332 42.26486816 32.78735352 43.1418457 C31.83796141 49.03332385 30.70296737 54.86982751 29.375 60.6875 C29.21290039 61.41203369 29.05080078 62.13656738 28.88378906 62.88305664 C28.46968178 64.60647372 27.96219064 66.30696988 27.4375 68 C26.4475 68.495 26.4475 68.495 25.4375 69 C21.5445778 67.5992355 18.10927366 65.58564883 15 62.875 C12.36579197 60.94753071 11.18237118 60.65111656 8.0625 60.125 C2.97927817 59.15757548 -0.25276538 56.95851783 -3.5625 53 C-5.33234314 49.22946462 -5.80611257 46.14141364 -5.5625 42 C-4.9025 42 -4.2425 42 -3.5625 42 C-4.0386093 38.10378668 -4.51892326 34.20810284 -5 30.3125 C-5.13470703 29.20970703 -5.26941406 28.10691406 -5.40820312 26.97070312 C-5.54033203 25.90400391 -5.67246094 24.83730469 -5.80859375 23.73828125 C-5.92904053 22.75899658 -6.0494873 21.77971191 -6.17358398 20.77075195 C-6.5410189 18.15303769 -7.03278918 15.58883722 -7.5625 13 C-8.0105344 8.64451801 -8.28172129 5.20829176 -6 1.375 C-3.5625 0 -3.5625 0 0 0 Z " fill="#87DBE7" transform="translate(256.5625,148)"/>
<path d="M0 0 C1.20656997 0.84851055 2.38993393 1.73008656 3.5625 2.625 C4.22378906 3.11226562 4.88507813 3.59953125 5.56640625 4.1015625 C7 6 7 6 6.71484375 9.2109375 C6.47894531 10.13132813 6.24304688 11.05171875 6 12 C6.95261719 12.00257813 7.90523437 12.00515625 8.88671875 12.0078125 C18.90916695 12.3168294 18.90916695 12.3168294 21.90234375 14.19140625 C23.125 15.6875 23.125 15.6875 25 19 C25.78375 19.94875 26.5675 20.8975 27.375 21.875 C29.59122441 26.13697002 28.95928257 28.36346758 28 33 C28.99 33.33 29.98 33.66 31 34 C30.67 34.99 30.34 35.98 30 37 C29.34 37 28.68 37 28 37 C27.95101562 37.56847656 27.90203125 38.13695312 27.8515625 38.72265625 C27.36768753 43.7199167 26.46790697 48.20483724 25 53 C25 53.66 25 54.32 25 55 C23.35 55.66 21.7 56.32 20 57 C21.65 57 23.3 57 25 57 C24.505 57.99 24.505 57.99 24 59 C20.84060803 59.88462975 18.29749646 60.51130157 15.15625 59.2734375 C13.37837197 58.2519374 11.6966473 57.15102945 10 56 C9.21367187 55.54625 8.42734375 55.0925 7.6171875 54.625 C4.78059971 52.86377534 2.31075868 50.89145317 -0.25 48.75 C-3.64763775 45.92167152 -7.06962177 43.18848988 -10.625 40.5625 C-15.73442567 36.64496567 -19.8403606 31.88733046 -24 27 C-23.34 26.34 -22.68 25.68 -22 25 C-21.34 25.33 -20.68 25.66 -20 26 C-18.12137125 25.91255632 -16.24544819 25.75824458 -14.375 25.5625 C-13.37210938 25.46066406 -12.36921875 25.35882813 -11.3359375 25.25390625 C-10.56507813 25.17011719 -9.79421875 25.08632812 -9 25 C-8.690625 24.21625 -8.38125 23.4325 -8.0625 22.625 C-7 20 -7 20 -6 18 C-6.061875 16.700625 -6.12375 15.40125 -6.1875 14.0625 C-6.22265625 11.8828125 -6.22265625 11.8828125 -6 10 C-4.125 8.4375 -4.125 8.4375 -2 7 C-0.71157463 3.40932038 -0.71157463 3.40932038 0 0 Z " fill="#87D9E6" transform="translate(220,211)"/>
<path d="M0 0 C9.16947605 1.98163869 17.30953887 5.61667721 25 11 C27.629074 16.258148 26.33057381 23.65307293 24.8125 29.125 C22.35930252 36.36941886 18.99693396 43.0794388 13 48 C5.15286109 51.51768296 -9.19177465 48.60274178 -17 46 C-15.02 45.34 -13.04 44.68 -11 44 C-11.19335938 43.41992188 -11.38671875 42.83984375 -11.5859375 42.2421875 C-12.0709332 39.61589004 -11.68306776 38.54205386 -10.625 36.125 C-9.52896379 33.47169966 -8.90927992 31.44559951 -8.4375 28.5625 C-8.293125 27.716875 -8.14875 26.87125 -8 26 C-7.34 25.67 -6.68 25.34 -6 25 C-6 24.34 -6 23.68 -6 23 C-6.66 22.67 -7.32 22.34 -8 22 C-7.93039063 21.11248047 -7.93039063 21.11248047 -7.859375 20.20703125 C-7.57833493 14.87392639 -7.57833493 14.87392639 -9.9375 10.1875 C-10.9584375 9.1046875 -10.9584375 9.1046875 -12 8 C-13 5.9375 -13 5.9375 -13 4 C-9.89690136 -1.07779777 -5.35161189 -0.7567148 0 0 Z " fill="#0B4CAD" transform="translate(256,222)"/>
<path d="M0 0 C3.15455719 4.0181622 4.76416693 7.81762863 6.1875 12.6875 C8.09925721 18.93808066 10.68716543 24.6067555 13.625 30.4375 C17.80306001 38.81065246 19.88890396 46.74086631 21 56 C18.51565563 58.34290892 17.22268407 58.97982934 13.765625 59.29296875 C12.60546875 59.25816406 11.4453125 59.22335938 10.25 59.1875 C9.07953125 59.16042969 7.9090625 59.13335937 6.703125 59.10546875 C5.81109375 59.07066406 4.9190625 59.03585938 4 59 C2.55772156 56.11544311 2.44790338 53.18763358 2 50 C0.43994517 42.46414194 -1.56777757 35.1400098 -4.078125 27.8671875 C-4.44478271 26.80491943 -4.81144043 25.74265137 -5.18920898 24.64819336 C-5.9268748 22.53972929 -6.67858314 20.43611551 -7.44555664 18.33813477 C-9.41612462 12.7309438 -10.60607141 8.80056857 -9 3 C-6.76332819 -0.64930663 -4.04437677 -0.74284471 0 0 Z " fill="#DA8BBF" transform="translate(232,145)"/>
<path d="M0 0 C3.45915446 3.73846828 3.33535663 6.43755362 3.18164062 11.31982422 C2.90248613 15.43885391 2.39754919 19.48617173 1.75 23.5625 C1.61795166 24.41368408 1.48590332 25.26486816 1.34985352 26.1418457 C0.40046141 32.03332385 -0.73453263 37.86982751 -2.0625 43.6875 C-2.22459961 44.41203369 -2.38669922 45.13656738 -2.55371094 45.88305664 C-2.96781822 47.60647372 -3.47530936 49.30696988 -4 51 C-4.99 51.495 -4.99 51.495 -6 52 C-11.35814198 50.17846829 -15.28570342 47.17858365 -19 43 C-18.61908203 42.17435547 -18.61908203 42.17435547 -18.23046875 41.33203125 C-15.16464533 33.9258286 -14.04412346 26.60802368 -13.12768555 18.70239258 C-11.42605304 4.74952678 -11.42605304 4.74952678 -7.125 -0.125 C-4.26403061 -1.30304622 -2.8765203 -1.10635396 0 0 Z " fill="#88DAE7" transform="translate(288,165)"/>
<path d="M0 0 C0.78375 0.04125 1.5675 0.0825 2.375 0.125 C2.375 0.785 2.375 1.445 2.375 2.125 C3.035 2.125 3.695 2.125 4.375 2.125 C7.63798108 6.32629948 10.1085759 10.55309782 11 15.8125 C10.18085823 20.15395139 8.9830117 22.53017306 6.375 26.125 C2.12854304 28.69522395 -2.13572946 28.52866549 -6.9375 27.75 C-8.625 27.125 -8.625 27.125 -9.625 25.125 C-10.10411129 19.47148683 -9.65170102 16.62299102 -6.57421875 11.92578125 C-5.47162408 9.83402758 -5.22393491 8.15747876 -5 5.8125 C-4.57484925 1.63185097 -4.35556152 0.20740769 0 0 Z " fill="#DA89BE" transform="translate(204.625,209.875)"/>
<path d="M0 0 C1.875 2.0625 1.875 2.0625 3 4 C2.34 4 1.68 4 1 4 C1.061875 5.03125 1.12375 6.0625 1.1875 7.125 C0.98051176 11.40275692 0.04119476 13.28210954 -2 17 C-2.97642694 19.59978696 -3.92242536 22.20692961 -4.83984375 24.828125 C-6.20907587 27.39140129 -7.3238246 27.9943391 -10 29 C-10.83905565 27.87926138 -11.67107831 26.75325453 -12.5 25.625 C-13.19609375 24.68527344 -13.19609375 24.68527344 -13.90625 23.7265625 C-15 22 -15 22 -15 20 C-15.66 20 -16.32 20 -17 20 C-18.60819739 16.78360522 -18.46861231 13.48855833 -18 10 C-14.0965722 2.48228721 -8.6202513 -2.33465139 0 0 Z " fill="#054BAD" transform="translate(224,192)"/>
<path d="M0 0 C0.66 0 1.32 0 2 0 C5.89896244 8.25925251 8.0188848 15.92102349 9 25 C6.51565563 27.34290892 5.22268407 27.97982934 1.765625 28.29296875 C0.60546875 28.25816406 -0.5546875 28.22335938 -1.75 28.1875 C-2.92046875 28.16042969 -4.0909375 28.13335937 -5.296875 28.10546875 C-6.18890625 28.07066406 -7.0809375 28.03585938 -8 28 C-9.11645679 25.76708642 -9.29888803 23.78878457 -9.609375 21.3359375 C-10.30687281 17.16490063 -11.42764592 13.08290515 -12.4765625 8.98828125 C-12.97212995 6.1591089 -12.9694241 4.65622204 -12 2 C-11.67 3.65 -11.34 5.3 -11 7 C-9.02 7.66 -7.04 8.32 -5 9 C-5 10.65 -5 12.3 -5 14 C-2.28775382 12.38731308 0.37352812 10.75098126 3 9 C0.525 8.01 0.525 8.01 -2 7 C-1.125 1.125 -1.125 1.125 0 0 Z " fill="#D78FC1" transform="translate(244,176)"/>
<path d="M0 0 C2.90193162 1.22186595 3.74655509 2.32935035 5.375 5 C6.09310312 10.18060106 5.67050634 15.94752529 4.375 21 C1.23075698 22.57212151 -2.20291292 22.5179375 -5.625 22 C-8.38671875 20.484375 -8.38671875 20.484375 -10.625 19 C-10.25431812 16.57700626 -9.85488083 14.16500566 -9.4375 11.75 C-9.33630859 11.06808594 -9.23511719 10.38617188 -9.13085938 9.68359375 C-8.47643793 6.04005811 -7.79835553 4.17584389 -5.17578125 1.515625 C-2.625 0 -2.625 0 0 0 Z " fill="#E368B4" transform="translate(285.625,164)"/>
<path d="M0 0 C2.61476404 1.78012614 4.94766545 3.58079736 7 6 C7.29191508 11.44908154 5.25673785 14.7563719 2 19 C1.34 19.66 0.68 20.32 0 21 C-0.99 21 -1.98 21 -3 21 C-5.56616632 17.15075052 -5.55097676 14.5650696 -6 10 C-5.38125 9.649375 -4.7625 9.29875 -4.125 8.9375 C-1.24445747 6.31112298 -0.84537162 3.73372463 0 0 Z " fill="#FBFCFD" transform="translate(220,211)"/>
<path d="M0 0 C2.70361469 3.24433763 3 4.70892052 3 9 C0.03824877 8.38722388 -1.38058783 7.74627478 -4 6 C-1.38485683 8.12038635 1.19637616 10.13091744 4 12 C4 12.66 4 13.32 4 14 C3.34 14 2.68 14 2 14 C2.57452746 17.93075644 2.57452746 17.93075644 5 21 C3.35 20.67 1.7 20.34 0 20 C-1 16 -1 16 -2 12 C-2.94875 12.04125 -3.8975 12.0825 -4.875 12.125 C-8 12 -8 12 -10 10 C-9.81597683 6.62624187 -9.59820495 3.9760186 -7.8125 1.0625 C-5.02331475 -0.57253963 -3.15784841 -0.52630807 0 0 Z " fill="#DA8CBF" transform="translate(232,145)"/>
<path d="M0 0 C3.77254453 0.50980331 5.44987123 1.20700182 8 4 C8.66 4 9.32 4 10 4 C10.33 3.01 10.66 2.02 11 1 C11.73313104 2.96612416 12.46624278 4.93225552 13.19921875 6.8984375 C13.82839764 8.54964843 14.5001782 10.18463257 15.1875 11.8125 C16 14 16 14 16 17 C10.73841555 19.27204783 10.73841555 19.27204783 7.625 18.125 C5.09957931 14.82252679 5.73213014 12.0850154 6 8 C6.66 8.33 7.32 8.66 8 9 C8 10.98 8 12.96 8 15 C8.66 15 9.32 15 10 15 C9.67 14.01 9.34 13.02 9 12 C9.33 11.34 9.66 10.68 10 10 C10.66 10 11.32 10 12 10 C8.39464361 6.19434603 4.3562392 2.90415947 0 0 Z " fill="#B5AFD1" transform="translate(224,149)"/>
<path d="M0 0 C0.99 0.33 1.98 0.66 3 1 C2.67 1.7425 2.34 2.485 2 3.25 C0.77217129 6.13883312 0.77217129 6.13883312 1 10 C2.65 10.33 4.3 10.66 6 11 C2.87378374 14.39417765 0.43458973 16.6062718 -4 18 C-3.67 16.02 -3.34 14.04 -3 12 C-4.65 12 -6.3 12 -8 12 C-7.401875 11.29875 -6.80375 10.5975 -6.1875 9.875 C-4.02160785 7.02839889 -2.5361277 4.21855327 -1 1 C-0.67 0.67 -0.34 0.34 0 0 Z " fill="#DB8BBE" transform="translate(242,173)"/>
<path d="M0 0 C2 3 2 3 2 5 C3.98 5.66 5.96 6.32 8 7 C8 8.65 8 10.3 8 12 C8.99 12.33 9.98 12.66 11 13 C8.69 13.66 6.38 14.32 4 15 C2.25674553 12.3851183 1.58412043 10.9946567 0.875 8.0625 C0.70742187 7.39347656 0.53984375 6.72445312 0.3671875 6.03515625 C0 4 0 4 0 0 Z " fill="#ABB8D6" transform="translate(231,178)"/>
<path d="M0 0 C0.66 0 1.32 0 2 0 C2.69937202 1.4317616 3.38412718 2.87067032 4.0625 4.3125 C4.63677734 5.51326172 4.63677734 5.51326172 5.22265625 6.73828125 C6 9 6 9 5 12 C2.52260646 12.90837763 0.66420516 13 -2 13 C-0.35 11.68 1.3 10.36 3 9 C0.525 8.01 0.525 8.01 -2 7 C-1.125 1.125 -1.125 1.125 0 0 Z " fill="#AEB5D4" transform="translate(244,176)"/>
<path d="M0 0 C0.99 0.33 1.98 0.66 3 1 C2 3 2 3 0 4 C-1.12224855 5.88013106 -1.12224855 5.88013106 -2.125 8.0625 C-2.65480469 9.16271484 -2.65480469 9.16271484 -3.1953125 10.28515625 C-3.59363281 11.13400391 -3.59363281 11.13400391 -4 12 C-4.66 11.67 -5.32 11.34 -6 11 C-5.34 10.01 -4.68 9.02 -4 8 C-5.32 7.01 -6.64 6.02 -8 5 C-7.34 3.68 -6.68 2.36 -6 1 C-4.35 1.33 -2.7 1.66 -1 2 C-0.67 1.34 -0.34 0.68 0 0 Z " fill="#ABB9D6" transform="translate(241,171)"/>
<path d="M0 0 C1.32 0.33 2.64 0.66 4 1 C4.125 4.375 4.125 4.375 4 8 C3.34 8.66 2.68 9.32 2 10 C-0.125 9.625 -0.125 9.625 -2 9 C-2.25 3.375 -2.25 3.375 0 0 Z " fill="#064DAE" transform="translate(202,213)"/>
<path d="M0 0 C-1.485 1.485 -1.485 1.485 -3 3 C-2.67 3.66 -2.34 4.32 -2 5 C-3.32 5 -4.64 5 -6 5 C-6.33 6.65 -6.66 8.3 -7 10 C-7.99 9.67 -8.98 9.34 -10 9 C-10 7.02 -10 5.04 -10 3 C-3.375 -1.125 -3.375 -1.125 0 0 Z " fill="#B3B1D2" transform="translate(249,194)"/>
<path d="M0 0 C1 2 1 2 0.22265625 4.6015625 C-0.16019531 5.59929687 -0.54304688 6.59703125 -0.9375 7.625 C-1.50791016 9.12933594 -1.50791016 9.12933594 -2.08984375 10.6640625 C-2.39019531 11.43492187 -2.69054687 12.20578125 -3 13 C-3.66 13 -4.32 13 -5 13 C-5 9.04 -5 5.08 -5 1 C-3.35 0.67 -1.7 0.34 0 0 Z " fill="#F9FDFD" transform="translate(273,195)"/>
<path d="M0 0 C1.98 0 3.96 0 6 0 C5.67 1.98 5.34 3.96 5 6 C3.35 6 1.7 6 0 6 C0 4.02 0 2.04 0 0 Z " fill="#B561B2" transform="translate(276,242)"/>
<path d="M0 0 C2.475 0.99 2.475 0.99 5 2 C4.1875 3.9375 4.1875 3.9375 3 6 C2.01 6.33 1.02 6.66 0 7 C0 4.69 0 2.38 0 0 Z " fill="#B461B2" transform="translate(270,260)"/>
<path d="M0 0 C1.9375 0.8125 1.9375 0.8125 4 2 C4.33 2.99 4.66 3.98 5 5 C3.35 5.66 1.7 6.32 0 7 C0 4.69 0 2.38 0 0 Z " fill="#C063B2" transform="translate(263,227)"/>
<path d="M0 0 C2.475 0.99 2.475 0.99 5 2 C5 2.99 5 3.98 5 5 C3.35 5.33 1.7 5.66 0 6 C0 4.02 0 2.04 0 0 Z " fill="#BF63B2" transform="translate(259,257)"/>
<path d="M0 0 C0.99 0 1.98 0 3 0 C3 2.97 3 5.94 3 9 C2.34 9 1.68 9 1 9 C0.67 6.03 0.34 3.06 0 0 Z " fill="#F7FBFC" transform="translate(251,190)"/>
<path d="M0 0 C2.5 1.375 2.5 1.375 5 3 C5 3.66 5 4.32 5 5 C3.35 5.66 1.7 6.32 0 7 C0 4.69 0 2.38 0 0 Z " fill="#CE65B3" transform="translate(268,249)"/>
<path d="M0 0 C1.9375 0.8125 1.9375 0.8125 4 2 C4.33 2.99 4.66 3.98 5 5 C3.35 5.33 1.7 5.66 0 6 C0 4.02 0 2.04 0 0 Z " fill="#C864B3" transform="translate(252,224)"/>
<path d="M0 0 C1.9375 0.8125 1.9375 0.8125 4 2 C4.33 2.99 4.66 3.98 5 5 C3.35 5.33 1.7 5.66 0 6 C0 4.02 0 2.04 0 0 Z " fill="#D466B3" transform="translate(257,246)"/>
<path d="M0 0 C0.99 0.495 0.99 0.495 2 1 C2 1.66 2 2.32 2 3 C2.66 3 3.32 3 4 3 C4.33 4.65 4.66 6.3 5 8 C3.35 7.67 1.7 7.34 0 7 C0 4.69 0 2.38 0 0 Z " fill="#D293C2" transform="translate(235,196)"/>
<path d="M0 0 C1.98 0.99 1.98 0.99 4 2 C4 2.99 4 3.98 4 5 C2.68 5.33 1.36 5.66 0 6 C0 4.02 0 2.04 0 0 Z " fill="#D465B3" transform="translate(274,231)"/>
<path d="M0 0 C0.78375 0.04125 1.5675 0.0825 2.375 0.125 C2.375 0.785 2.375 1.445 2.375 2.125 C0.725 2.455 -0.925 2.785 -2.625 3.125 C-2.955 4.115 -3.285 5.105 -3.625 6.125 C-4.25 4.25 -4.25 4.25 -4.625 2.125 C-2.625 0.125 -2.625 0.125 0 0 Z " fill="#B591C2" transform="translate(204.625,209.875)"/>
<path d="M0 0 C1.32 0 2.64 0 4 0 C3.67 1.32 3.34 2.64 3 4 C1.68 4.33 0.36 4.66 -1 5 C-0.67 3.35 -0.34 1.7 0 0 Z " fill="#DB8BBE" transform="translate(243,199)"/>
<path d="M0 0 C0.99 0 1.98 0 3 0 C4.1875 1.6875 4.1875 1.6875 5 4 C3.625 6.75 3.625 6.75 2 9 C1.34 8.67 0.68 8.34 0 8 C0.556875 7.13375 0.556875 7.13375 1.125 6.25 C2.29166667 4 2.29166667 4 1.125 1.75 C0.75375 1.1725 0.3825 0.595 0 0 Z " fill="#BAABCF" transform="translate(235,174)"/>
<path d="M0 0 C1.98 0.99 1.98 0.99 4 2 C4 2.99 4 3.98 4 5 C2.68 5.33 1.36 5.66 0 6 C0 4.02 0 2.04 0 0 Z " fill="#D365B3" transform="translate(255,235)"/>
<path d="M0 0 C-1.32 1.32 -2.64 2.64 -4 4 C-4.99 3.34 -5.98 2.68 -7 2 C-7 1.34 -7 0.68 -7 0 C-3.98968256 -0.93423645 -3.13349732 -1.04449911 0 0 Z " fill="#B56AB6" transform="translate(247,223)"/>
<path d="M0 0 C1.65 0 3.3 0 5 0 C4.67 1.32 4.34 2.64 4 4 C2.68 4 1.36 4 0 4 C0 2.68 0 1.36 0 0 Z " fill="#D98DBF" transform="translate(233,186)"/>
<path d="M0 0 C1.32 0.66 2.64 1.32 4 2 C4 2.99 4 3.98 4 5 C2.35 4.67 0.7 4.34 -1 4 C-0.67 2.68 -0.34 1.36 0 0 Z " fill="#DE67B4" transform="translate(251,265)"/>
<path d="M0 0 C1.32 0.99 2.64 1.98 4 3 C3.67 3.99 3.34 4.98 3 6 C2.01 6 1.02 6 0 6 C0 4.02 0 2.04 0 0 Z " fill="#D666B3" transform="translate(249,253)"/>
<path d="M0 0 C0.66 0.66 1.32 1.32 2 2 C1.625 4.625 1.625 4.625 1 7 C0.01 6.67 -0.98 6.34 -2 6 C-1.34 4.02 -0.68 2.04 0 0 Z " fill="#D096C4" transform="translate(245,176)"/>
</svg>
